<svg width="81" height="24" viewBox="0 0 81 24" fill="none" xmlns="http://www.w3.org/2000/svg">
<path d="M16.184 23.5V20.588H4.472L15.864 3.18V0.716H0.44V3.628H11.48L0.12 21.036V23.5H16.184ZM25.8075 23.82C30.0955 23.82 32.4955 21.74 33.2315 18.38H30.1275C29.6155 20.268 28.1435 21.484 25.8075 21.484C22.9915 21.484 21.1355 19.788 21.0395 15.884H33.5195C33.5515 15.564 33.5835 15.276 33.5835 14.956C33.5835 10.22 30.8315 6.668 25.6155 6.668C20.3995 6.668 17.6475 10.156 17.6475 15.244C17.6475 20.492 20.5595 23.82 25.8075 23.82ZM25.6155 9.004C28.1755 9.004 29.8395 10.54 30.1915 13.644H21.0395C21.3915 10.54 23.0555 9.004 25.6155 9.004ZM58.0858 23.5V15.66C58.0858 11.98 59.8458 9.9 62.5338 9.9L64.1658 9.964V6.988C63.7498 6.892 63.1098 6.796 62.6618 6.796C60.2618 6.796 58.7898 7.884 57.9258 10.796V6.988H54.6938V23.5H58.0858ZM70.9113 23.82C73.7593 23.82 75.5833 22.764 76.4793 20.652C76.4793 22.188 76.6713 22.86 77.1833 23.5H80.2233C79.9033 22.956 79.7113 21.516 79.7113 19.276V12.108C79.7113 8.78 77.6313 6.668 72.7993 6.668C67.9353 6.668 65.8873 8.78 65.8873 12.108H69.2153C69.3753 10.06 70.5913 9.1 72.8313 9.1C75.2313 9.1 76.3193 10.22 76.3193 12.108C76.3193 13.164 75.7433 13.612 73.7913 13.804L70.5913 14.06C66.4953 14.412 64.9913 16.364 64.9913 18.828C64.9913 21.9 67.0713 23.82 70.9113 23.82ZM71.8393 21.484C69.4073 21.484 68.3833 20.3 68.3833 18.604C68.3833 17.26 69.3113 16.268 71.6793 16.076L73.7913 15.884C75.0713 15.788 75.9673 15.532 76.3193 15.084V16.492C76.3193 19.212 74.7513 21.484 71.8393 21.484Z" fill="white"/>
<path d="M44.8993 23.82C49.3473 23.82 52.1313 20.652 52.1313 15.244C52.1313 9.836 49.3473 6.668 44.8993 6.668C42.2433 6.668 40.4513 7.756 39.5233 9.804V0.716H36.1313V23.5H39.3633V20.46C40.2593 22.572 42.0513 23.82 44.8993 23.82ZM44.1313 21.228C41.3793 21.228 39.5233 19.404 39.5233 15.244C39.5233 11.116 41.3793 9.26 44.1313 9.26C46.8513 9.26 48.7393 11.116 48.7393 15.244C48.7393 19.404 46.8513 21.228 44.1313 21.228Z" fill="#2DCA72"/>
</svg>
