<svg width="114" height="30" viewBox="0 0 114 30" fill="none" xmlns="http://www.w3.org/2000/svg">
<path fill-rule="evenodd" clip-rule="evenodd" d="M100.764 22.948V7.79236C100.764 6.57986 100.36 6.1757 99.1474 6.1757H95.6217V7.84478H95.8372L96.2146 7.8704C96.3497 7.8704 96.4824 7.95193 96.5919 8.06025C96.7538 8.24777 96.8062 8.43646 96.8062 8.84063V22.948H100.764H100.764ZM102.539 22.948H106.471V11.5067C106.471 10.349 106.04 9.89122 104.855 9.89122H102.539V22.948ZM95.0568 22.948V9.89123H92.7133C91.5556 9.89123 91.0967 10.349 91.0967 11.5067V22.9468H95.0568V22.948ZM110.377 15.3294C110.377 22.1408 105.475 27.0956 98.798 27.0956C92.0949 27.0956 87.2227 22.1408 87.2227 15.3294C87.2227 8.54595 92.096 3.5923 98.798 3.5923C105.475 3.5923 110.377 8.54595 110.377 15.3294ZM113.231 15.3294C113.231 7.0644 107.065 0.899414 98.798 0.899414C90.5341 0.899414 84.3412 7.06439 84.3412 15.3294C84.3412 23.6212 90.5341 29.7862 98.798 29.7862C107.065 29.7862 113.231 23.6212 113.231 15.3294V15.3294ZM78.0783 20.848H72.208L77.8093 12.9883V10.215H69.033C68.0348 10.215 67.5794 10.6716 67.5794 11.6686V14.1169H69.1413V13.8758C69.1413 13.2573 69.4639 12.9603 70.136 12.9603H73.1526L67.499 20.9027V23.676H78.0807V20.848H78.0783ZM58.0529 23.676V14.577C58.7529 13.7966 59.4797 13.446 60.3137 13.446C61.2024 13.446 61.4167 13.7966 61.4167 15.1442V23.6771H65.6156V14.5246C65.6156 12.3977 65.4549 11.7257 64.7805 10.9977C64.2156 10.3781 63.3548 10.0531 62.2495 10.0531C60.6095 10.0531 59.4506 10.5656 57.8887 12.0192V11.4811C57.8887 10.6448 57.4601 10.215 56.5958 10.215H52.6124V11.749H52.8547C53.5559 11.749 53.8517 12.0716 53.8517 12.7716V23.6748H58.0529L58.0529 23.676ZM46.6711 17.2151V19.8265C45.971 20.5521 45.1103 20.9842 44.3823 20.9842C43.6299 20.9842 43.3609 20.6069 43.3609 19.6098C43.3609 18.6128 43.5752 18.1562 44.3299 17.8604C44.8948 17.6181 45.6216 17.4038 46.6711 17.2151V17.2151ZM40.9906 14.0633C42.3906 13.3913 43.9258 13.0151 45.1371 13.0151C46.2669 13.0151 46.6711 13.4192 46.6711 14.6015V14.8985C44.9484 15.1664 44.4103 15.2758 43.4412 15.4913C42.8984 15.6168 42.367 15.7875 41.8525 16.0015C40.1567 16.6747 39.3483 17.9944 39.3483 20.0117C39.3483 22.5683 40.4525 23.8087 42.7412 23.8087C43.5752 23.8087 44.3299 23.6492 45.002 23.379C45.5948 23.1111 45.9443 22.8944 46.8062 22.2212V22.4099C46.8062 23.245 47.2371 23.6748 48.0711 23.6748H51.9206V22.2212H51.733C51.0051 22.2212 50.736 21.8986 50.736 21.0355V14.6294C50.736 11.2097 49.5515 10.0252 46.1318 10.0252C45.03 10.0252 43.9537 10.1591 42.902 10.4014C41.8525 10.6437 41.3133 10.8591 40.0483 11.4799L40.9906 14.0633ZM37.4975 7.36024C37.4975 6.14891 36.61 5.42211 35.0749 5.42211C33.5665 5.42211 32.6522 6.14891 32.6522 7.36024C32.6522 8.57157 33.5665 9.29954 35.0749 9.29954C36.61 9.29954 37.4975 8.57158 37.4975 7.36024ZM37.4172 23.676V11.5859C37.4172 10.7264 36.9059 10.215 36.0719 10.215H31.979V11.749H32.2224C32.9224 11.749 33.2183 12.0716 33.2183 12.7716V23.6748H37.4172V23.676H37.4172ZM30.1271 23.676V7.09119C30.1271 6.23045 29.6146 5.71796 28.7829 5.71796H24.6353V7.27988H24.9044C25.6044 7.27988 25.9002 7.57573 25.9002 8.27573V23.6748H30.1271V23.676ZM22.9464 23.676V7.09119C22.9464 6.23045 22.4363 5.71796 21.6 5.71796H17.4547V7.27988H17.7237C18.4237 7.27988 18.7196 7.57573 18.7196 8.27573V23.6748H22.9464L22.9464 23.676ZM10.8913 16.4068H7.09542L9.11392 9.8097L10.8913 16.4068ZM5.13051 23.676L6.42221 19.342H11.5378L12.7491 23.676H17.4873L12.7759 7.14593C12.5068 6.1757 11.914 5.71796 10.8913 5.71796H4.1894V7.27988H4.7543C5.45431 7.27988 5.83169 7.5501 5.83169 8.08705C5.83169 8.43764 5.75016 8.73348 5.4811 9.54181L0.768555 23.676H5.13051Z" fill="#276CBA"/>
</svg>
