<svg width="101" height="21" viewBox="0 0 101 21" fill="none" xmlns="http://www.w3.org/2000/svg">
<path fill-rule="evenodd" clip-rule="evenodd" d="M70.3189 20.5H89.3058C94.0713 20.2186 94.7467 15.697 94.7467 15.697C94.9156 14.515 94.7842 13.5394 94.7842 13.5394C94.6529 12.47 93.1332 9.24296 89.8874 8.92401C87.9737 8.73639 70.6567 7.72326 70.6567 7.72326C71.1632 9.50562 71.8574 10.0497 72.3828 10.5375C73.5835 11.7007 75.3659 11.9634 75.3659 11.9634C75.8161 12.0009 88.7617 13.0891 88.7617 13.0891C89.1745 13.1079 90.0188 13.1454 90.0188 14.1585C90.0188 14.4587 89.8687 14.7777 89.6811 14.9465C89.6811 14.9465 89.2308 15.1904 88.7992 15.1904H70.3752L70.3189 20.5ZM17.955 20.4625H42.758C47.0732 19.5994 47.5235 15.6595 47.5235 15.6595C47.7298 14.4963 47.6173 13.5394 47.6173 13.5394C47.4859 12.7514 45.985 9.26173 42.758 8.96154C40.8255 8.77392 23.621 7.40432 23.621 7.40432C23.9587 9.1304 24.728 10.0122 25.2533 10.5C26.454 11.6445 28.349 11.9822 28.349 11.9822L41.6135 13.0891C42.0263 13.1079 42.7955 13.2204 42.7767 14.2336C42.7767 14.3649 42.6642 15.2467 41.6886 15.2467H23.1332V7.36678L17.9737 6.99155C17.955 6.99155 17.955 20.4625 17.955 20.4625L17.955 20.4625ZM70.2814 7.72327L65.0657 7.40432V13.5394C65.0657 13.5394 65.0469 15.303 63.3396 15.303H54.409C54.409 15.303 52.8893 15.1717 52.8893 13.5582V6.57881L47.636 6.20358V15.6032C48.4803 20.106 52.5516 20.4625 52.5516 20.4625C52.5516 20.4625 52.9643 20.4812 53.0394 20.5H65.1407C65.1407 20.5 70.3189 20.0872 70.3189 15.0966L70.2814 7.72327ZM70.2814 0.51876H64.9906V5.80957H70.2814V0.51876ZM52.8893 0.51876H47.5797V5.80957H52.8893V0.51876ZM94.878 5.80957V0.5H75.9099C73.5084 0.65009 72.439 1.81332 71.651 2.63884C70.8067 3.52064 70.3377 5.37805 70.3377 5.37805V5.80957H94.878ZM46.6604 5.80957V0.5H28.9306C26.5103 0.65009 25.4597 1.81332 24.6717 2.63884C23.8274 3.52064 23.3583 5.37805 23.3583 5.37805V0.53752H13.9212C13.2083 0.53752 12.5328 0.83771 12.0263 1.55065C11.5009 2.24483 9.34334 5.80956 9.34334 5.80956L46.6604 5.80957ZM9.1182 6.12852L0 20.4625H6.22889L15.0094 6.76642L9.1182 6.12852ZM98.0113 3.03283V2.18855H98.7617C98.8743 2.18855 98.9681 2.20731 99.0244 2.24484C99.1369 2.30113 99.1932 2.43246 99.1932 2.60131C99.1932 2.77017 99.1557 2.88274 99.0619 2.93902C98.9869 2.99531 98.8743 3.03283 98.7242 3.03283H98.0113ZM97.7111 4.36492H98.03V3.31426H98.743C98.8555 3.31426 98.9493 3.31426 99.0244 3.35178C99.1182 3.40807 99.1745 3.52064 99.1933 3.67073L99.2308 4.08349V4.27111C99.2495 4.30863 99.2495 4.3274 99.2683 4.34616H99.6623V4.28987C99.606 4.27111 99.5872 4.21482 99.5685 4.13978C99.5497 4.10226 99.5497 4.02721 99.5497 3.9334L99.531 3.61445C99.531 3.46436 99.4934 3.37055 99.4559 3.31426C99.3996 3.25797 99.3246 3.20169 99.2308 3.16417C99.3433 3.10788 99.4184 3.03284 99.4747 2.93903C99.531 2.84522 99.5497 2.73265 99.5497 2.58256C99.5497 2.30113 99.4372 2.11352 99.2308 2.00095C99.1182 1.94466 98.9681 1.9259 98.7993 1.9259H97.7298L97.7111 4.36492ZM96.3227 3.03283C96.3227 4.2711 97.317 5.28424 98.5553 5.28424C99.1557 5.28424 99.6998 5.0591 100.113 4.62758C100.525 4.19606 100.769 3.63321 100.769 3.03283C100.769 2.43245 100.544 1.8696 100.113 1.43808C99.681 1.00656 99.1369 0.78142 98.5553 0.78142C97.3171 0.78142 96.3227 1.79455 96.3227 3.03283ZM96.4915 3.03283C96.4915 1.88836 97.4109 0.95028 98.5366 0.95028C99.0807 0.95028 99.5872 1.17542 99.9812 1.55066C100.375 1.94466 100.582 2.46998 100.582 3.01407C100.582 3.55816 100.375 4.08349 99.9812 4.47748C99.5872 4.87148 99.0807 5.09662 98.5366 5.09662C97.4109 5.09662 96.4915 4.1773 96.4915 3.03283Z" fill="#0060B5"/>
</svg>
