<svg width="108" height="21" viewBox="0 0 108 21" fill="none" xmlns="http://www.w3.org/2000/svg">
<path fill-rule="evenodd" clip-rule="evenodd" d="M87.6084 13.3473C87.6082 13.7375 87.9245 14.0539 88.3147 14.054H93.2645V0.976L87.6091 6.93141L87.6084 13.3473M100.458 20.5C100.848 20.4989 101.163 20.1828 101.163 19.7933V14.8441H88.0861L94.0406 20.4986L100.458 20.5M107.614 7.65346C107.614 7.46612 107.54 7.28643 107.407 7.1541C107.274 7.02177 107.095 6.94771 106.907 6.94827H101.958V20.0253L107.612 14.0684L107.614 7.65346ZM94.7647 0.5C94.3744 0.49989 94.0578 0.81604 94.0574 1.20634V6.15609H107.135L101.179 0.50154L94.7647 0.50001" fill="#0765BE"/>
<path fill-rule="evenodd" clip-rule="evenodd" d="M41.1538 6.04826L43.9284 12.376H38.3967L41.1538 6.04826ZM39.6407 2.8887L32.4203 18.1106H35.8334L37.2396 14.967H45.085L46.4868 18.1106H49.9135L42.6767 2.88851L39.6407 2.8887M54.987 2.88008C53.1449 2.88008 51.2597 3.98596 51.2597 6.8324V7.56365C51.2597 10.5291 53.0755 11.6624 54.8908 11.6706H61.2672C61.9293 11.6706 62.4676 11.7802 62.4676 12.9001L62.4668 14.1943C62.4503 15.1977 61.9473 15.4298 61.2444 15.4298H52.8567L51.1384 18.1085H61.4407C63.9264 18.1085 65.613 16.8731 65.613 14.0167V12.9674C65.613 10.2064 64.0462 8.90351 61.6158 8.90351H55.5278C54.8523 8.90351 54.3826 8.71821 54.3826 7.71849L54.3819 6.66607C54.3819 5.81466 54.7053 5.50365 55.4916 5.50365L63.4792 5.50058L65.1492 2.8772L54.987 2.88008M4.79893 2.88448C1.61044 2.88448 0 4.82107 0 7.64126V13.3259C0 16.5886 2.07418 18.1126 4.78245 18.1126L14.3953 18.1106L12.6145 15.328H5.37572C3.83867 15.328 3.16913 14.7725 3.16913 13.0513V7.89459C3.16913 6.23049 3.73232 5.58126 5.41673 5.58126H12.69L14.4008 2.88467L4.79892 2.88448M68.4347 2.8864V18.1095L81.8801 18.1087L80.1763 15.4298H71.509V11.5706H79.9017V8.98898H71.509V5.50365H80.1621L81.8314 2.8864H68.4347M27.667 2.8864V8.92536H19.2526V2.8864L16.1891 2.88525V18.1122H19.2526V11.5706H27.667V18.1122H30.7361V2.88641H27.667" fill="white"/>
</svg>
