<svg width="76" height="21" viewBox="0 0 76 21" fill="none" xmlns="http://www.w3.org/2000/svg">
<path fill-rule="evenodd" clip-rule="evenodd" d="M55.6366 1.93267C55.6366 1.14183 56.2943 0.49998 57.1051 0.49998H74.0363C74.8474 0.49998 75.5048 1.14183 75.5048 1.93267V19.0675C75.5048 19.8586 74.8474 20.5 74.0363 20.5H57.1051C56.2943 20.5 55.6366 19.8586 55.6366 19.0678V1.9324V1.93267Z" fill="#0077B3"/>
<path fill-rule="evenodd" clip-rule="evenodd" d="M27.2844 4.14133H24.2826V17.253H27.2844V14.3249L28.0346 13.3804L30.3848 17.253H34.0775L30.1283 11.6468L33.5839 7.83297H29.9704C29.9704 7.83297 27.5019 11.245 27.2844 11.65L27.2844 4.14133ZM13.8865 17.253H16.8883V12.2095C16.8883 11.9396 16.9077 11.6697 16.9872 11.4774C17.2039 10.9381 17.6978 10.3794 18.5272 10.3794C19.6136 10.3794 20.0483 11.2077 20.0483 12.4211V17.2527H23.0495V12.0746C23.0495 9.30053 21.5686 8.00975 19.5935 8.00975C17.9743 8.00975 17.2632 8.91495 16.8681 9.53163H16.8883V8.22196H13.8866C13.9262 9.06946 13.8866 17.253 13.8866 17.253L13.8865 17.253ZM10.9923 6.98914C12.0389 6.98914 12.6904 6.29561 12.6904 5.42844C12.671 4.54238 12.0389 3.86853 11.0122 3.86853C9.98533 3.86853 9.31383 4.54265 9.31383 5.42844C9.31383 6.29561 9.96539 6.98914 10.9726 6.98914H10.9923H10.9923ZM12.4929 17.253V8.22195H9.49116V17.253H12.4929ZM-0.000244141 17.253H8.29375V14.5298H3.00181V4.14132H-0.000244141V17.253Z" fill="white"/>
<path fill-rule="evenodd" clip-rule="evenodd" d="M49.6129 13.0726C49.6129 13.3035 49.5933 13.5351 49.5534 13.7271C49.3763 14.556 48.6652 15.1333 47.7962 15.1333C46.5524 15.1333 45.7424 14.1318 45.7424 12.5522C45.7424 11.0692 46.4341 9.87466 47.8162 9.87466C48.7442 9.87466 49.3958 10.5102 49.5736 11.2998C49.6129 11.4737 49.6129 11.6665 49.6129 11.8396V13.0724V13.0726ZM49.6129 4.14126V8.68013H49.5733C49.1387 8.04483 48.2303 7.62095 47.0264 7.62095C44.7155 7.62095 42.6816 9.47018 42.701 12.6293C42.701 15.5577 44.5379 17.4649 46.8283 17.4649C48.0727 17.4649 49.2573 16.9251 49.8501 15.8848H49.9091L50.0279 17.2529H52.6937C52.6543 16.6171 52.6145 15.5191 52.6145 14.4403V4.14099H49.6127L49.6129 4.14126ZM35.8647 11.455C35.9436 10.6844 36.4574 9.5473 37.7409 9.5473C39.1033 9.5473 39.4196 10.7612 39.4196 11.455H35.8649H35.8647ZM42.1048 13.4858C42.1444 13.2539 42.2037 12.809 42.2037 12.3059C42.2037 9.97143 41.0186 7.60127 37.8985 7.60127C34.561 7.60127 33.0205 10.2408 33.0205 12.6348C33.0205 15.5957 34.8968 17.4447 38.1747 17.4447C39.4784 17.4447 40.6826 17.2527 41.6704 16.8479L41.2754 14.8655C40.4654 15.1341 39.636 15.2686 38.6094 15.2686C37.2074 15.2686 35.9832 14.6929 35.8843 13.4663L42.1048 13.4852V13.4857V13.4858Z" fill="white"/>
<path fill-rule="evenodd" clip-rule="evenodd" d="M63.3193 17.2419H66.3208V12.1991C66.3208 11.9295 66.3405 11.6593 66.4197 11.4668C66.6366 10.9272 67.1305 10.3688 67.9599 10.3688C69.0459 10.3688 69.4805 11.1969 69.4805 12.4111V17.2419H72.482V12.0638C72.482 9.28995 71.0013 7.99916 69.0264 7.99916C67.4072 7.99916 66.6961 8.9041 66.3011 9.52051H66.3211V8.2111H63.3195C63.3586 9.05834 63.3193 17.2422 63.3193 17.2422L63.3193 17.2419ZM60.1575 6.97802C61.2041 6.97802 61.8556 6.28449 61.8556 5.41785C61.836 4.53153 61.2041 3.85742 60.1774 3.85742C59.15 3.85742 58.479 4.53154 58.479 5.41785C58.479 6.28449 59.1303 6.97802 60.1378 6.97802H60.1572H60.1575ZM61.6579 17.2419V8.21084H58.6561V17.2419H61.6581H61.6579Z" fill="#181818"/>
</svg>
