<svg width="142" height="21" viewBox="0 0 142 21" fill="none" xmlns="http://www.w3.org/2000/svg">
<path fill-rule="evenodd" clip-rule="evenodd" d="M76.1572 7.12991C76.7635 7.6996 77.3806 8.26081 77.9869 8.8322C77.981 10.6211 77.9827 12.4091 77.9827 14.198C77.3612 13.6529 76.7711 13.0748 76.1573 12.5212L76.1572 7.12991ZM77.5943 5.88397C77.0271 6.21424 76.4675 6.5547 75.9174 6.91129C75.2713 7.30524 74.5653 7.58499 73.8777 7.89403C73.8938 9.69735 73.8823 11.5011 73.884 13.3045C73.654 13.5337 73.4217 13.7621 73.1984 13.9964C73.2452 13.9938 73.3385 13.987 73.3852 13.9837C73.5482 13.8096 73.718 13.6398 73.8862 13.47C74.6579 14.1017 75.4182 14.747 76.1849 15.3846C76.3113 15.5068 76.4545 15.3248 76.5776 15.2805C77.8103 14.6064 78.9751 13.8121 80.2453 13.2068C80.2648 11.5266 80.2512 9.84678 80.2538 8.16572C80.4831 7.93648 80.7153 7.7081 80.9394 7.47377C80.8944 7.47462 80.8048 7.47844 80.759 7.48014C80.545 7.65589 80.3286 7.82697 80.1137 8.00017C79.2732 7.29548 78.4364 6.58527 77.5943 5.88398L77.5943 5.88397ZM42.3852 7.18297C42.9795 8.15086 43.5242 9.15101 44.0726 10.1461C43.5063 10.5612 42.9591 11.0019 42.3979 11.4238C42.3716 10.0111 42.3979 8.59659 42.3852 7.18297ZM44.1045 5.87973C43.5874 6.22019 43.067 6.5564 42.538 6.87733C41.7646 7.36127 40.9262 7.7255 40.1162 8.14237C40.1187 9.86079 40.1115 11.5796 40.1183 13.2981C39.8688 13.484 39.5928 13.6313 39.3499 13.8266C39.3754 13.8716 39.4285 13.962 39.4539 14.007C39.7231 13.8261 39.9888 13.6406 40.2648 13.47C40.9601 14.1348 41.6656 14.7894 42.3661 15.4483C43.6762 14.4752 44.9615 13.4675 46.2589 12.4767C46.4254 12.4427 46.2887 12.1728 46.1825 12.2771C45.4795 12.8222 44.7974 13.3953 44.1045 13.9539C43.5612 13.4148 43.0216 12.8732 42.4808 12.3323C42.3058 12.1786 42.4095 11.9222 42.4001 11.721C43.5531 10.8652 44.6704 9.96055 45.8259 9.10813C45.2935 8.01289 44.6708 6.95883 44.1045 5.87972L44.1045 5.87973ZM22.3992 7.14901C23.0054 8.14491 23.6146 9.13742 24.214 10.1376C23.6044 10.5663 22.9999 11.0002 22.3972 11.4366C22.3911 10.0077 22.3882 8.57791 22.3992 7.14901H22.3992ZM24.2501 5.88185C23.5165 6.30636 22.8077 6.7695 22.0894 7.21694C21.4806 7.53447 20.8621 7.83418 20.2491 8.14237C20.2516 9.86164 20.2466 11.5809 20.2534 13.3002C19.9919 13.5032 19.6866 13.6491 19.4489 13.8818C19.4947 13.9089 19.5856 13.9642 19.6314 13.9922C19.8369 13.8148 20.0401 13.6339 20.266 13.4828C21.0259 14.1144 21.743 14.7984 22.5011 15.4334C22.5384 15.414 22.6136 15.3745 22.6518 15.3549C23.9354 14.3598 25.2324 13.3797 26.5169 12.3854L26.3577 12.2454C25.6428 12.8023 24.9475 13.3886 24.2394 13.954C23.6544 13.4276 23.0885 12.8804 22.5052 12.3515C22.3066 12.2063 22.4178 11.9308 22.4034 11.7253C23.6013 10.8483 24.7998 9.97083 25.9799 9.07002C25.3907 8.01375 24.8206 6.94823 24.2501 5.88186V5.88185ZM138.898 10.2946C139.176 10.529 139.451 10.7675 139.73 11.0036C139.857 11.08 139.795 11.2396 139.813 11.3602C139.805 12.2796 139.824 13.2021 139.802 14.1216C139.594 13.6512 139.282 13.2136 138.843 12.935C138.205 12.5182 137.328 12.494 136.68 12.8989C136.383 13.0636 136.145 13.3094 135.92 13.559C136.242 12.9308 136.762 12.4349 137.251 11.9373C137.809 11.3992 138.368 10.8618 138.898 10.2946H138.898ZM137.987 7.09383C138.345 7.60749 138.818 8.10714 139.467 8.21242C140.113 8.36439 140.739 8.01417 141.163 7.54806C140.583 8.62037 139.683 9.48128 138.754 10.2522C138.502 9.98561 138.232 9.73727 137.983 9.46898C137.993 8.67769 137.985 7.88513 137.987 7.09384V7.09383ZM141.536 5.48917C141.597 5.64539 141.617 5.81986 141.54 5.97524C141.353 6.404 140.842 6.5687 140.407 6.56106C139.952 6.52031 139.597 6.19301 139.29 5.88397C138.776 6.22867 138.259 6.57083 137.745 6.91553C137.153 7.31457 136.498 7.60918 135.841 7.88342C135.839 8.72735 135.842 9.56958 135.839 10.4135C136.319 10.8134 136.812 11.1955 137.283 11.6064C136.922 11.9884 136.566 12.3759 136.226 12.7758C135.876 13.1969 135.545 13.6834 135.525 14.249C135.505 14.8916 135.78 15.5875 136.349 15.9278C136.6 16.0756 136.906 16.2072 137.198 16.0934C136.834 15.9635 136.387 15.7003 136.419 15.2571C136.52 14.8377 137.018 14.5571 137.431 14.6776C137.86 14.7999 138.214 15.1064 138.488 15.4502C139.59 14.6564 140.751 13.9471 141.956 13.3213C141.947 12.2508 141.971 11.1775 141.946 10.1078C141.413 9.73421 140.906 9.3271 140.379 8.94674C140.936 8.2412 141.497 7.49491 141.729 6.61193C141.816 6.23929 141.845 5.76936 141.536 5.48918V5.48917ZM47.0451 4.42365C47.3889 4.18762 47.8236 4.20206 48.221 4.15111C47.9213 4.38799 47.5885 4.66307 47.5477 5.07145C47.4806 5.43653 47.7116 5.7651 47.9808 5.98415C48.4707 6.3764 49.0998 6.59545 49.4988 7.09807C49.6907 7.34089 49.807 7.64824 49.7985 7.95983C49.796 9.60694 49.8002 11.2532 49.796 12.8994C50.234 13.2535 50.6739 13.6033 51.111 13.9573C51.2384 13.875 51.3657 13.7927 51.494 13.7103C51.4881 11.9129 51.5033 10.1147 51.4863 8.31812C51.2614 8.05238 50.9498 7.86219 50.6925 7.62532C51.3241 7.04374 51.9431 6.44688 52.5875 5.87973C53.1478 6.4299 53.7371 6.95035 54.3119 7.48523C54.0937 7.71607 53.8692 7.94086 53.6386 8.15936C53.6343 9.73939 53.6386 11.3194 53.636 12.8995C54.21 13.3443 54.784 13.7901 55.3638 14.2282C55.4454 14.1805 55.5278 14.1339 55.6118 14.0872C55.6032 12.1575 55.6126 10.2284 55.6066 8.29861C55.3409 8.07192 55.0658 7.85542 54.8034 7.62449C55.4232 7.03866 56.0507 6.46303 56.6738 5.88145C57.2945 6.36709 57.916 6.85273 58.5331 7.34262C58.7472 7.10659 58.9662 6.87226 59.2106 6.66595C59.242 6.71095 59.3066 6.80179 59.338 6.84679C58.8099 7.31715 58.2852 7.79345 57.7732 8.28164C57.729 9.82007 57.7724 11.3636 57.752 12.9029C56.408 13.7858 55.0046 14.5917 53.641 15.4508C52.9218 14.9354 52.2232 14.3921 51.5133 13.8648C50.8765 14.3768 50.2389 14.8896 49.5979 15.3965C49.5062 15.4983 49.412 15.3498 49.3364 15.3073C48.7369 14.8259 48.141 14.3402 47.5339 13.8699C47.2792 14.0923 47.0119 14.3003 46.7563 14.5227C46.7156 14.4837 46.6358 14.4064 46.595 14.3682C46.9066 14.1526 47.2114 13.9259 47.523 13.7102C47.5248 12.2185 47.5248 10.7276 47.523 9.23587C47.5221 8.83683 47.382 8.43269 47.1095 8.13723C46.8098 7.81206 46.4065 7.58367 46.1679 7.20246C45.9039 6.75927 45.8801 6.20995 45.9812 5.71489C46.129 5.15555 46.5731 4.72934 47.0451 4.4237V4.42365ZM110.543 3.90744C111.094 3.4252 111.611 2.90729 112.174 2.43863C112.649 2.9404 113.15 3.41755 113.633 3.91168C113.053 4.45421 112.47 4.99249 111.882 5.52652C111.438 4.98399 110.982 4.4542 110.543 3.90743L110.543 3.90744ZM68.7452 9.22275C69.0815 9.23124 69.3396 9.48213 69.5136 9.74702C69.5111 11.1335 69.5145 12.5208 69.5136 13.9072C69.5408 14.3326 69.2479 14.6964 68.9279 14.9409C68.6188 15.1863 68.1994 15.1948 67.8241 15.1744C67.8029 13.3634 67.8232 11.5496 67.8156 9.73852C68.0584 9.47447 68.3657 9.21765 68.7452 9.22274V9.22275ZM67.8155 7.93011C68.3369 8.19501 69.0077 8.27524 69.5136 7.93223C69.5119 8.42891 69.5119 8.92771 69.5136 9.42439C69.3081 9.22402 69.0442 9.06483 68.7495 9.06568C68.4032 9.05804 68.0848 9.22148 67.8155 9.42439C67.8173 8.92686 67.8147 8.42849 67.8155 7.93011ZM68.4502 3.40482C68.8068 3.71047 69.1579 4.02206 69.5136 4.33026C69.5144 5.4255 69.511 6.52074 69.5136 7.61598C69.3446 7.78239 69.16 7.95814 68.9129 7.98955C68.5105 8.07445 68.1186 7.87536 67.8155 7.62659C67.8172 6.34796 67.8164 5.06976 67.8155 3.79113C68.0279 3.66378 68.2397 3.53642 68.4502 3.40482H68.4502ZM70.1865 1.64735C69.3885 2.29346 68.6082 2.95951 67.8178 3.61496C67.8093 2.99687 67.8284 2.38006 67.8072 1.76197C67.685 1.75603 67.6311 1.81121 67.648 1.92753C67.6437 6.2966 67.6493 10.6652 67.6459 15.0343C67.2146 14.9519 66.7825 14.8658 66.3554 14.769C66.3486 11.0842 66.355 7.40024 66.3533 3.71471C66.344 3.2486 66.1928 2.77994 65.8863 2.4242C65.5043 1.97167 64.907 1.76154 64.3306 1.72163C63.647 1.7021 63.0205 2.06124 62.5433 2.52396C62.1044 2.94083 61.8688 3.58524 61.9936 4.1838C62.047 3.81278 62.168 3.39463 62.5093 3.18832C62.8838 3.0287 63.3826 3.15733 63.6067 3.50883C63.7986 3.7924 63.8177 4.14687 63.8253 4.47884C63.827 5.47474 63.8244 6.47065 63.8253 7.4674C63.1682 7.47759 62.3922 7.58371 62.0126 8.19331C61.6305 8.67046 61.5125 9.34713 61.7749 9.90833C61.9472 10.4636 62.5246 10.7498 63.0611 10.838C62.7606 10.6437 62.4549 10.3015 62.6323 9.92107C62.871 9.53901 63.4134 9.48297 63.8167 9.5942C63.8328 11.3618 63.8252 13.1287 63.8209 14.8963C63.2181 15.1068 62.6314 15.4724 62.3097 16.0404C62.0753 16.4454 62.0694 16.9298 62.0889 17.384C62.1611 18.1804 62.6866 18.9075 63.3922 19.2709C63.9254 19.5205 64.5256 19.5282 65.103 19.5087C66.7416 19.4111 68.2983 18.7607 69.9403 18.7064C70.4293 18.6698 70.7158 19.2103 70.5876 19.634C70.49 20.0169 70.1691 20.2758 69.866 20.5C70.4424 20.3777 71.0164 20.1612 71.4664 19.7697C71.9741 19.3394 72.2076 18.6452 72.1754 17.9931C72.1372 17.3479 71.6167 16.8678 71.0759 16.5901C70.3636 16.1724 69.5035 16.2655 68.7199 16.3504C67.2477 16.5202 65.8128 16.9876 64.3262 17.0275C63.822 17.0614 63.3512 16.7044 63.2501 16.2103C63.1363 15.7341 63.523 15.3175 63.9144 15.1129C64.7617 14.713 65.7368 14.8611 66.6207 15.0471C67.6454 15.1542 68.607 15.5722 69.6326 15.6775C70.215 15.7437 70.8336 15.6318 71.3115 15.2786C71.804 14.9746 72.026 14.3823 72.0395 13.8246C72.0455 10.347 72.0332 6.86978 72.0459 3.39226C72.3635 3.11633 72.7136 2.86884 72.9905 2.5496C72.6032 2.64554 72.3605 3.0085 72.0438 3.23094C71.418 2.71032 70.8055 2.17628 70.1866 1.64734L70.1865 1.64735ZM11.7104 3.22313C12.5875 2.56938 13.4475 1.89186 14.3254 1.24066C14.3297 3.39887 14.3246 5.55794 14.328 7.717C15.0709 7.10401 15.8196 6.49865 16.5549 5.87717C17.1449 6.48932 17.696 7.13967 18.3039 7.73228C18.5604 7.54804 18.8235 7.37314 19.0926 7.20843C19.0443 7.55059 18.635 7.66775 18.4227 7.90633C18.4253 9.08647 18.4227 10.2658 18.4236 11.4459C18.4406 12.3281 18.3132 13.2042 18.287 14.0855C18.247 15.0415 17.876 16.0188 17.1306 16.6462C16.5243 17.1879 15.6958 17.3831 14.9053 17.4485C14.8917 17.4672 14.8629 17.5054 14.8484 17.5248L14.8697 17.4553C14.5971 17.4553 14.3254 17.4451 14.0538 17.4247C14.3951 17.2481 14.7814 17.1352 15.0505 16.8431C15.3595 16.4983 15.7195 16.1699 15.8715 15.719C16.1203 15.0313 16.1279 14.2901 16.1525 13.5685C16.1457 11.9511 16.1602 10.3328 16.1449 8.71629C15.7849 8.24678 15.3536 7.83246 14.9715 7.37908C14.7627 7.60237 14.5123 7.79001 14.3331 8.03792C14.3186 9.7071 14.3314 11.3771 14.3271 13.0462C14.5437 13.262 14.7593 13.4793 14.9775 13.6933C15.1525 13.5175 15.3273 13.3409 15.5022 13.1643C15.5413 13.2025 15.6185 13.2789 15.6575 13.3171C14.8085 13.9811 13.9681 14.6553 13.1191 15.3183C12.5816 14.8411 12.0569 14.3504 11.528 13.8639C11.3505 13.9964 11.1731 14.1305 10.9948 14.262C10.9567 14.2221 10.8819 14.1423 10.8438 14.1024C11.2513 13.8401 11.6512 13.5659 12.0545 13.2984C12.0536 10.3302 12.0536 7.36286 12.0545 4.39468C12.0459 4.16799 12.057 3.92347 11.9373 3.72141C11.8582 3.56689 11.68 3.51765 11.5467 3.42425C11.5169 3.32585 11.6578 3.28425 11.7104 3.22312V3.22313ZM87.7854 3.10767C88.8042 2.44373 89.8213 1.77386 90.8436 1.11501C90.8521 5.0324 90.8359 8.95064 90.8521 12.868C91.0729 13.1686 91.3742 13.4156 91.6417 13.6798C91.8098 13.4998 91.9847 13.3274 92.158 13.1534C92.1986 13.194 92.2801 13.2756 92.3218 13.3155C91.5059 14.0227 90.7155 14.7571 89.8945 15.4568C89.3774 14.9261 88.8424 14.4142 88.3297 13.8809C88.0995 14.0855 87.8891 14.3098 87.6726 14.528C87.6283 14.494 87.54 14.4251 87.496 14.3913C87.8873 14.0168 88.3068 13.6738 88.7024 13.3028C88.699 10.3338 88.705 7.36476 88.699 4.39657C88.6895 3.84122 88.4068 3.17644 87.7854 3.10767H87.7854ZM40.3913 1.09973C40.8973 1.98611 40.5806 3.18748 39.819 3.82594C39.3512 4.13074 38.8129 4.29885 38.2857 4.4695C38.2976 8.09483 38.2875 11.721 38.2891 15.3463C38.3265 15.5119 38.1745 15.6417 38.0183 15.5756C37.7101 15.5611 37.6286 15.236 37.4978 15.0169C35.6011 11.5291 33.7248 8.02945 31.8127 4.54931C31.7762 7.10911 31.8119 9.67146 31.7949 12.232C32.6983 12.4028 33.5779 12.8383 34.1688 13.5566C34.443 13.3443 34.6205 12.9708 34.972 12.885C34.8828 13.0472 34.7529 13.1804 34.629 13.3163C33.9455 14.0728 33.2637 14.8327 32.5811 15.5908C32.2645 15.1918 31.8426 14.8131 31.3144 14.7588C30.9671 14.7452 30.5656 14.763 30.3125 15.0373C30.0213 15.2971 29.8261 15.7352 30.0341 16.1062C30.2777 16.6385 30.8907 16.7829 31.4069 16.9102C30.7617 17.0376 30.0392 16.9629 29.5188 16.5307C29.1045 16.1767 28.7283 15.7274 28.6205 15.1791C28.4753 14.4234 28.7012 13.5837 29.2658 13.0479C29.8831 12.4375 30.7881 12.2099 31.6354 12.2583C31.6583 11.1426 31.6481 10.0271 31.6405 8.9115C31.2287 8.84613 30.6675 8.90471 30.4756 9.33516C30.3644 9.68411 30.626 9.97787 30.8849 10.1689C30.5639 10.1129 30.2073 10.0517 29.9756 9.80297C29.7022 9.46591 29.4899 9.06772 29.411 8.63811C29.332 8.0854 29.4772 7.45542 29.9374 7.09968C30.4188 6.72696 31.0598 6.67602 31.6473 6.6896V4.33102C31.4342 4.01094 31.2296 3.64416 30.8637 3.4786C30.6243 3.37926 30.3119 3.34361 30.1056 3.53039C29.8203 3.77236 29.7514 4.15697 29.6386 4.49403C29.5291 3.67133 29.6114 2.73825 30.1879 2.09299C30.8841 1.19133 32.3572 1.15822 33.1187 1.99196C33.4482 2.33072 33.674 2.74844 33.8982 3.16022C35.3076 5.66993 36.689 8.19577 38.1128 10.697C38.1213 8.62283 38.1255 6.54705 38.1111 4.47281C37.8665 4.37772 37.594 4.38027 37.3452 4.29367C36.8816 4.17141 36.4953 3.87255 36.1523 3.54908C35.9384 3.80039 35.7226 4.05085 35.5232 4.3132C35.4765 4.28773 35.3839 4.23764 35.3373 4.21217C36.0675 3.29183 36.8502 2.41309 37.6102 1.51652C38.0084 1.93594 38.528 2.27894 39.1206 2.31715C39.7393 2.24592 40.348 1.75094 40.3913 1.09974L40.3913 1.09973ZM103.534 6.19386C103.544 7.99039 103.534 9.7865 103.539 11.583C103.232 11.7112 102.929 11.8466 102.624 11.9757C102.181 11.3525 101.835 10.6516 101.658 9.90621C101.462 8.92983 101.514 7.87153 101.968 6.97071C102.494 6.7194 103.013 6.4562 103.534 6.19385V6.19386ZM107.799 0.501166C107.653 0.496756 107.51 0.525366 107.376 0.622156C107.682 0.692626 108.005 0.722766 108.291 0.866246C108.546 0.988506 108.714 1.24152 108.802 1.50302C108.85 1.78574 108.643 2.04639 108.395 2.15252C107.95 2.35798 107.445 2.26289 106.992 2.13979C105.905 1.80697 104.847 1.37652 103.738 1.11672C103.168 0.995306 102.571 0.880686 101.996 1.03182C101.371 1.20757 100.738 1.50642 100.37 2.06338C99.8941 2.67722 99.8343 3.52158 100.066 4.24325C100.257 4.72464 100.644 5.19797 101.191 5.25995C101.013 5.03071 100.706 4.79935 100.794 4.47248C100.843 4.14815 100.978 3.81916 101.238 3.6086C101.498 3.41247 101.853 3.41502 102.155 3.50247C103.26 3.70793 104.339 4.01825 105.432 4.2772C106.172 4.43427 106.883 4.71063 107.629 4.84817C107.642 5.68276 107.632 6.51735 107.635 7.35279C107.234 7.70683 106.834 8.06045 106.438 8.42044C106.837 8.72864 107.229 9.04447 107.633 9.34587C107.639 10.5337 107.631 11.7231 107.639 12.9118C106.938 13.4372 106.015 13.5668 105.164 13.4487C104.225 13.3926 103.403 12.8273 102.779 12.1583C103.034 11.9799 103.326 11.8653 103.602 11.721C104.378 11.339 105.144 10.9391 105.926 10.5706C105.951 8.70019 105.929 6.82895 105.937 4.95855C104.619 5.51975 103.312 6.10728 101.989 6.65659C102.291 5.93917 102.774 5.28287 103.424 4.84393C103.618 4.66649 103.815 4.48055 104.082 4.41942C103.815 4.4381 103.539 4.42918 103.297 4.55314C101.433 5.30707 99.8435 6.95163 99.4929 8.9723C99.3597 9.99792 99.4552 11.063 99.8134 12.0351C100.273 13.1762 101.081 14.19 102.133 14.8369C102.637 15.1434 103.178 15.3901 103.742 15.5606C105.094 15.7856 106.544 15.5912 107.726 14.8729C108.506 14.3287 109.231 13.6232 109.558 12.7079C109.909 11.931 110.05 11.0824 110.067 10.2351C109.904 10.4482 109.809 10.7017 109.67 10.9292C109.221 11.6831 108.64 12.3662 107.932 12.8883C107.941 11.7039 107.921 10.5196 107.943 9.33517C108.343 9.04565 108.719 8.72303 109.123 8.43521C108.751 8.04975 108.329 7.71694 107.934 7.35695C107.926 6.52661 107.943 5.69541 107.926 4.86507C108.702 4.81498 109.488 4.46645 109.906 3.78469C110.341 3.08425 110.338 2.12994 109.919 1.42441C109.588 0.988006 109.069 0.706986 108.533 0.626326C108.292 0.606796 108.041 0.508656 107.799 0.501176L107.799 0.501166ZM4.09428 6.19598C4.09088 7.99591 4.10489 9.79584 4.08791 11.5958C3.78736 11.7139 3.49181 11.8429 3.19644 11.9736C2.65137 11.1849 2.31261 10.2564 2.15639 9.31402C2.11394 8.51848 2.26167 7.71276 2.53845 6.96647C3.06145 6.71771 3.57298 6.44899 4.09428 6.19598ZM8.32462 0.501166C8.1903 0.507616 8.05981 0.541746 7.93399 0.622156C8.45198 0.725736 9.05894 0.795356 9.3859 1.26742C9.54976 1.44147 9.49874 1.70891 9.33487 1.86174C9.02506 2.23106 8.49306 2.34696 8.03808 2.22894C6.49532 1.86471 5.03627 1.15662 3.45115 0.972386C2.60213 0.860316 1.77221 1.2687 1.18638 1.85962C0.645549 2.40215 0.448919 3.2257 0.555979 3.96944C0.675609 4.55781 1.11166 5.16911 1.74249 5.25571C1.36892 4.84988 1.29802 4.14519 1.68518 3.72322C1.90423 3.45153 2.29351 3.41418 2.61698 3.46427C3.84552 3.69266 5.04264 4.06241 6.26778 4.31117C6.95379 4.49795 7.63173 4.72082 8.33303 4.84818C8.34576 5.68617 8.34576 6.5233 8.33303 7.36129C7.8805 7.6992 7.44835 8.06301 7.00431 8.41196C7.43646 8.73544 7.8822 9.03854 8.32887 9.34164C8.35774 10.5269 8.32463 11.7118 8.34585 12.8969C7.61484 13.4615 6.63541 13.5532 5.74572 13.4488C4.80067 13.3962 3.96184 12.8332 3.3429 12.1498C4.38049 11.5962 5.43795 11.0741 6.49922 10.5664C6.5365 8.69765 6.50593 6.8281 6.51612 4.95855C5.18995 5.51466 3.87736 6.10049 2.55543 6.66508C2.93749 5.68786 3.71468 4.89614 4.6419 4.42578C4.39984 4.44021 4.14599 4.42238 3.92023 4.52766C2.18483 5.21282 0.75465 6.68545 0.216449 8.48198C-0.143541 9.62307 -0.0276505 10.8706 0.362909 11.9863C0.84685 13.2276 1.74215 14.3263 2.92908 14.9536C3.59565 15.2984 4.31307 15.6213 5.07719 15.6307C6.65892 15.7623 8.32292 15.1656 9.39023 13.9752C9.85626 13.4751 10.0911 12.8231 10.322 12.1922C10.5361 11.5708 10.6328 10.9093 10.6107 10.2522C10.0987 11.2676 9.41782 12.2214 8.48815 12.8948C8.49401 11.7138 8.48603 10.5332 8.49019 9.35223C8.89441 9.04404 9.30016 8.73627 9.69156 8.41194C9.28997 8.0562 8.89093 7.70089 8.49019 7.3443C8.49198 6.51396 8.48849 5.68191 8.49019 4.85242C9.3944 4.80487 10.4349 4.32772 10.6785 3.37937C10.8483 2.76043 10.9371 2.0273 10.5576 1.46695C10.2086 1.06961 9.75608 0.724476 9.2246 0.628536C8.93033 0.602816 8.62001 0.487086 8.32464 0.501186L8.32462 0.501166Z" fill="white"/>
<path fill-rule="evenodd" clip-rule="evenodd" d="M114.9 7.92331C115.622 7.29079 116.33 6.64214 117.056 6.0147C117.578 6.5895 118.117 7.14815 118.629 7.73143C119.396 7.17702 120.133 6.58101 120.893 6.0147C121.426 6.58525 121.948 7.16512 122.485 7.73143C123.238 7.16088 123.982 6.57846 124.74 6.01556C125.258 6.59289 125.792 7.1558 126.316 7.72804C126.637 7.52343 126.932 7.27806 127.259 7.08194C127.283 7.27211 127.11 7.35871 126.989 7.464C126.814 7.60494 126.645 7.75267 126.47 7.89276C126.455 9.47364 126.473 11.0545 126.46 12.6353C126.762 12.948 127.069 13.2549 127.382 13.5556C127.548 13.3834 127.718 13.2143 127.879 13.0377C127.927 13.0683 128.025 13.1286 128.074 13.1591C127.281 13.9394 126.465 14.696 125.651 15.4541C125.078 14.7774 124.477 14.1228 123.918 13.4342C124.053 13.3094 124.186 13.1795 124.317 13.0489C124.318 11.6852 124.317 10.3217 124.317 8.95903C123.884 8.47602 123.452 7.99114 123.006 7.52087C122.877 7.65247 122.748 7.78321 122.62 7.91557C122.619 9.62041 122.627 11.3252 122.616 13.0301C122.831 13.2712 123.073 13.4869 123.291 13.7271C122.704 14.2476 122.139 14.7927 121.556 15.3182C121.011 14.7452 120.474 14.1641 119.947 13.5752C120.097 13.3901 120.398 13.2559 120.351 12.9741C120.344 11.6445 120.358 10.3141 120.344 8.98543C119.981 8.47941 119.573 7.98953 119.152 7.52766C119.029 7.65842 118.904 7.78662 118.778 7.91481C118.782 9.56616 118.769 11.2184 118.784 12.8697C118.963 13.1736 119.228 13.4224 119.45 13.6966C118.88 14.2952 118.292 14.8767 117.699 15.4515C117.131 14.7758 116.544 14.1178 115.972 13.4462C116.151 13.3077 116.331 13.1711 116.51 13.0327C116.505 11.6377 116.5 10.242 116.512 8.84704C116.178 8.43272 115.811 8.04556 115.46 7.64567C115.21 7.83076 114.99 8.06339 114.705 8.19415C114.691 8.06425 114.819 8.00226 114.9 7.92331H114.9ZM83.3951 6.0232C83.8809 6.46554 84.2892 6.98684 84.7401 7.46484C85.231 6.99448 85.7105 6.51053 86.1843 6.02234C86.5289 6.2431 86.8881 6.55299 87.3306 6.46384C87.6421 6.44262 87.8042 6.13697 88.0692 6.01216C88.0699 6.66166 87.9207 7.34428 87.4908 7.84859C86.9984 8.43782 86.067 8.61017 85.4083 8.20603C85.1554 8.08292 84.9869 7.84689 84.7512 7.70171C84.757 9.47786 84.7544 11.2532 84.7529 13.0293C85.1027 13.2985 85.4533 13.5668 85.8134 13.8232C86.0748 13.6517 86.2759 13.3358 86.6062 13.3061C85.8302 14.0448 85.0168 14.7477 84.2078 15.4516C83.5999 14.8785 82.9784 14.3198 82.3773 13.74C82.143 13.9505 81.9263 14.1798 81.7031 14.4014C81.6675 14.3598 81.5962 14.2774 81.5606 14.2359C81.8551 13.9081 82.1836 13.6127 82.4851 13.2909C82.4741 11.7712 82.4911 10.2514 82.4775 8.7325C82.3162 8.34875 82.0359 8.01592 81.833 7.64915C81.5553 7.81301 81.3534 8.15432 81.0078 8.16621C81.7931 7.4402 82.6141 6.75334 83.3951 6.02319V6.0232ZM131.089 7.17872C131.739 8.13896 132.309 9.15354 132.919 10.1418C132.301 10.5656 131.7 11.0138 131.085 11.4408C131.095 10.0204 131.086 8.59914 131.089 7.17873V7.17872ZM132.942 5.88185C132.402 6.21041 131.86 6.53856 131.327 6.87731C130.589 7.39013 129.743 7.70936 128.961 8.14236C128.969 9.86078 128.961 11.5805 128.965 13.298C128.695 13.4763 128.428 13.6579 128.158 13.8329C128.193 13.8754 128.263 13.9624 128.298 14.0049C128.531 13.8325 128.741 13.6279 128.992 13.4785C129.693 14.1297 130.426 14.7456 131.136 15.3866C131.204 15.4953 131.303 15.3841 131.372 15.3399C132.652 14.3534 133.936 13.3727 135.218 12.3896C135.068 12.1264 134.897 12.3815 134.746 12.4893C134.145 12.9793 133.544 13.4687 132.94 13.956C132.323 13.3931 131.727 12.8094 131.098 12.26C131.088 12.0833 131.088 11.9062 131.096 11.7294C132.297 10.8591 133.485 9.96852 134.677 9.08477C134.103 8.01416 133.527 6.94566 132.942 5.88184L132.942 5.88185ZM90.9497 9.89135C91.8242 8.54904 92.7174 7.21863 93.614 5.88991C94.0023 6.21976 94.4818 6.42403 94.9886 6.47573C95.4844 6.47658 95.9071 6.18198 96.2808 5.88737C96.1865 6.61158 95.9453 7.36382 95.3894 7.86728C94.9047 8.31217 94.1693 8.41914 93.5587 8.2018C93.1988 8.07954 92.866 7.88766 92.568 7.65248C92.5154 7.77643 92.472 7.90463 92.4405 8.03538C93.6818 9.90492 94.901 11.7914 96.1204 13.6763C96.4004 13.4946 96.6457 13.2653 96.8929 13.0421C96.9413 13.0725 97.0371 13.1338 97.0856 13.1642C96.2086 13.9462 95.3036 14.6967 94.4044 15.4541C93.249 13.6024 92.1189 11.7346 90.9497 9.89135Z" fill="white"/>
<path fill-rule="evenodd" clip-rule="evenodd" d="M109.879 8.03627C110.625 7.35214 111.397 6.69431 112.151 6.01781C112.687 6.62895 113.209 7.25368 113.743 7.86737C114.02 7.65007 114.268 7.39202 114.575 7.21294C114.552 7.31054 114.526 7.41154 114.435 7.46673C114.206 7.65772 113.978 7.84955 113.746 8.03543C113.749 9.61848 113.739 11.2007 113.751 12.7837C114.053 13.1249 114.365 13.4594 114.647 13.8192C114.882 13.6758 115.077 13.4796 115.301 13.3202C115.348 13.3455 115.444 13.3957 115.492 13.4203C114.747 14.1197 113.974 14.7903 113.197 15.4531C112.681 14.8319 112.151 14.2207 111.623 13.6087C111.393 13.8175 111.201 14.0705 110.95 14.2521C110.914 14.219 110.843 14.1511 110.807 14.1172C111.031 13.905 111.242 13.6792 111.469 13.4687C111.487 12.0308 111.47 10.5912 111.478 9.15325C111.464 8.95292 111.529 8.7161 111.373 8.55652C111.096 8.21276 110.842 7.85115 110.548 7.52267C110.329 7.70017 110.121 7.89285 109.879 8.03627H109.879Z" fill="white"/>
</svg>
