<svg width="41" height="60" viewBox="0 0 41 60" fill="none" xmlns="http://www.w3.org/2000/svg">
<path fill-rule="evenodd" clip-rule="evenodd" d="M26.4248 22.1076C27.3755 22.3815 28.3746 21.8498 28.6646 20.8993C28.9708 19.8521 29.1319 18.7566 29.1319 17.645C29.1319 11.3296 23.9916 6.17426 17.659 6.17426C11.3424 6.17426 6.18605 11.3135 6.18605 17.645C6.18605 19.0466 6.42776 20.416 6.92729 21.7048C7.20122 22.4298 7.87799 22.8648 8.60309 22.8648C8.81256 22.8648 9.02207 22.8325 9.23153 22.752C10.1661 22.3976 10.6334 21.3665 10.2789 20.4321C9.94053 19.546 9.76327 18.6116 9.76327 17.6449C9.76327 13.3112 13.2922 9.7669 17.6428 9.7669C21.9774 9.7669 25.5224 13.2951 25.5224 17.6449C25.5224 18.4021 25.4096 19.1593 25.2002 19.8843C24.9262 20.8348 25.4741 21.8337 26.4248 22.1076L26.4248 22.1076Z" fill="#333333"/>
<path fill-rule="evenodd" clip-rule="evenodd" d="M40.0404 36.0242C40.0404 35.9465 40.0275 35.8688 40.0016 35.7911C39.4191 33.2665 37.7361 31.687 35.613 31.687C34.9916 31.687 34.3961 31.8164 33.8524 32.0495C33.2699 30.2887 31.6128 29.007 29.658 29.007C28.9331 29.007 28.247 29.1883 27.6515 29.499C26.9265 28.049 25.4248 27.065 23.703 27.065C23.1593 27.065 22.6415 27.1686 22.1625 27.3369V21.951C22.1625 19.517 20.1818 17.5232 17.7351 17.5232C15.3013 17.5232 13.3077 19.5041 13.3077 21.951V40.4131L11.7024 37.6295C11.1069 36.555 10.1619 35.817 9.02267 35.5322C7.92228 35.2603 6.74423 35.4545 5.77332 36.063C4.14217 37.0987 3.62433 39.4162 4.43991 41.9408C4.43991 41.9538 4.45286 41.9667 4.45286 41.9797C4.62116 42.4846 8.7767 54.2532 13.722 59.1859C14.0068 59.4707 14.3692 59.6131 14.7446 59.6131C15.1201 59.6131 15.4826 59.4707 15.7674 59.1859C16.337 58.6163 16.324 57.71 15.7674 57.1403C11.3658 52.7514 7.36563 41.5265 7.18438 41.0345C6.82191 39.8952 6.88665 38.7818 7.3268 38.497C7.62454 38.3157 7.97408 38.251 8.31067 38.3287C8.67316 38.4193 8.95796 38.6653 9.17803 39.0537L13.4889 46.524C13.8126 47.0936 14.4858 47.3655 15.1071 47.1972C15.7415 47.0289 16.1816 46.4592 16.1816 45.799V21.964C16.1816 21.1224 16.8678 20.4233 17.7222 20.4233C18.5636 20.4233 19.2627 21.1095 19.2627 21.964V38.497C19.2627 39.2997 19.91 39.9341 20.6997 39.9341C21.5023 39.9341 22.1366 39.2867 22.1366 38.497V31.3633C22.1366 31.3504 22.1496 31.3374 22.1496 31.3245C22.2272 30.5477 22.8875 29.9521 23.6772 29.9521C24.5186 29.9521 25.2177 30.6383 25.2177 31.4928V33.4477V34.9884V39.0278C25.2177 39.8305 25.865 40.4649 26.6546 40.4649C27.4573 40.4649 28.0916 39.8176 28.0916 39.0278V34.9884V33.4477C28.0916 32.6062 28.7777 31.9071 29.6321 31.9071C30.4736 31.9071 31.1727 32.5933 31.1727 33.4477V35.3768C31.1727 35.4674 31.1856 35.5581 31.1986 35.6487C31.1856 35.8041 31.1727 35.9594 31.1727 36.1277V39.0408C31.1727 39.8435 31.82 40.4778 32.6096 40.4778C33.3993 40.4778 34.0466 39.8305 34.0466 39.0408V36.1277C34.0466 35.2862 34.7327 34.5871 35.5871 34.5871C36.5581 34.5871 36.9853 35.7393 37.1277 36.3349C37.2053 37.7461 37.8656 50.8741 35.4059 56.9073C35.1081 57.6453 35.4577 58.4868 36.1956 58.7846C36.3768 58.8623 36.5581 58.8882 36.7393 58.8882C37.3089 58.8882 37.8526 58.5515 38.0727 57.9948C40.9466 51.0295 40.0793 36.6327 40.0404 36.0242V36.0242Z" fill="#00B54E"/>
<path fill-rule="evenodd" clip-rule="evenodd" d="M3.56128 26.6711C3.83526 26.6711 4.12534 26.6067 4.3832 26.4778C5.26959 26.0265 5.60803 24.9468 5.15678 24.0605C4.12536 22.0621 3.60963 19.9188 3.60963 17.6465C3.60963 9.89499 9.91101 3.59386 17.6628 3.59386C25.4147 3.59386 31.7161 9.89499 31.7161 17.6465C31.7161 18.8713 31.5549 20.0799 31.2487 21.2564C30.9908 22.2233 31.571 23.2063 32.5219 23.4481C33.4888 23.7059 34.4719 23.1258 34.7137 22.175C35.1004 20.7084 35.2938 19.1936 35.2938 17.6465C35.2938 7.9128 27.3808 0.000132071 17.6467 0.000132071C7.91262 0.000132071 -0.000380023 7.9128 -0.000380023 17.6465C-0.000380023 20.4345 0.67649 23.2225 1.93355 25.6881C2.27199 26.3166 2.90051 26.6712 3.56127 26.6712L3.56128 26.6711Z" fill="#333333"/>
</svg>
