<svg width="74" height="55" viewBox="0 0 74 55" fill="none" xmlns="http://www.w3.org/2000/svg">
<path fill-rule="evenodd" clip-rule="evenodd" d="M67.8301 44.4001C67.1494 44.4001 66.5969 43.8476 66.5969 43.1668V3.70013C66.5969 3.0218 66.0444 2.4668 65.3637 2.4668H8.63629C7.95557 2.4668 7.40309 3.0218 7.40309 3.70013V43.1668C7.40309 43.8476 6.85062 44.4001 6.16989 44.4001C5.48916 44.4001 4.93669 43.8476 4.93669 43.1668V3.70013C4.93669 1.6602 6.59659 0.00013207 8.6363 0.00013207H65.3637C67.4035 0.00013207 69.0633 1.6602 69.0633 3.70013V43.1668C69.0633 43.8476 68.5109 44.4001 67.8301 44.4001H67.8301Z" fill="#00B54E"/>
<path fill-rule="evenodd" clip-rule="evenodd" d="M67.8333 54.2634H6.16667C2.76514 54.2634 0 51.4983 0 48.0968C0 47.416 0.55253 46.8634 1.23333 46.8634H28.3667C29.0475 46.8634 29.6 47.416 29.6 48.0968C29.6 48.7776 29.0475 49.3301 28.3667 49.3301H2.67879C3.18692 50.7657 4.55839 51.7968 6.16666 51.7968H67.8333C69.4416 51.7968 70.8131 50.7657 71.3212 49.3301H45.6333C44.9525 49.3301 44.4 48.7776 44.4 48.0968C44.4 47.416 44.9525 46.8634 45.6333 46.8634H72.7667C73.4475 46.8634 74 47.416 74 48.0968C74 51.4983 71.2349 54.2634 67.8333 54.2634Z" fill="#00B54E"/>
<path fill-rule="evenodd" clip-rule="evenodd" d="M25.896 35.2668C25.6075 35.2668 25.319 35.1657 25.0847 34.961L15.2217 26.3295C14.9529 26.0952 14.8 25.7598 14.8 25.4023C14.8 25.0447 14.9529 24.7093 15.2217 24.475L25.0847 15.8436C25.5951 15.3923 26.3718 15.4416 26.8255 15.9595C27.2743 16.4724 27.2225 17.2493 26.7097 17.6981L17.9044 25.4023L26.7072 33.1064C27.2201 33.5553 27.2718 34.3321 26.8231 34.8451C26.579 35.1237 26.2387 35.2668 25.8959 35.2668L25.896 35.2668Z" fill="white"/>
<path fill-rule="evenodd" clip-rule="evenodd" d="M33.298 37.7401C33.1697 37.7401 33.0389 37.7204 32.9081 37.6784C32.2615 37.4613 31.9135 36.763 32.1282 36.1165L39.5321 13.9095C39.7468 13.263 40.4403 12.9102 41.0918 13.1298C41.7385 13.3469 42.0864 14.0452 41.8717 14.6917L34.4678 36.8987C34.2951 37.412 33.8138 37.7401 33.298 37.7401Z" fill="white"/>
<path fill-rule="evenodd" clip-rule="evenodd" d="M48.0972 35.2668C47.7543 35.2668 47.4138 35.1237 47.1695 34.8451C46.7205 34.3321 46.7723 33.5554 47.2855 33.1065L56.0936 25.4027L47.2855 17.6989C46.7723 17.2501 46.7205 16.4733 47.1695 15.9604C47.6186 15.4426 48.3982 15.3957 48.9114 15.8445L58.7805 24.4755C59.047 24.7098 59.1999 25.0452 59.1999 25.4027C59.1999 25.7603 59.047 26.0957 58.778 26.33L48.909 34.961C48.6746 35.1656 48.3859 35.2668 48.0972 35.2668H48.0972Z" fill="white"/>
</svg>
