<svg width="74" height="68" viewBox="0 0 74 68" fill="none" xmlns="http://www.w3.org/2000/svg">
<path fill-rule="evenodd" clip-rule="evenodd" d="M60.4333 65.3645V19.6863H70.3V65.3645H60.4333ZM41.9333 65.3645V29.5626H51.8V65.3645H41.9333ZM23.4333 65.3645V39.439H33.3V65.3645H23.4333ZM4.93333 65.3645V50.5499H14.8V65.3645H4.93333ZM72.7666 65.3645V17.2172H57.9667V65.3645H54.2667V27.0935H39.4667V65.3645H35.7667V36.9699H20.9667V65.3645H17.2667V48.0809H2.46666V65.3645H1.23333C0.55253 65.3645 0 65.9164 0 66.5991C0 67.2818 0.55253 67.8336 1.23333 67.8336H2.46666H17.2667H20.9667H35.7667H39.4667H54.2667H57.9667H72.7666C73.4475 67.8336 74 67.2818 74 66.5991C74 65.9164 73.4475 65.3645 72.7666 65.3645Z" fill="#00B54E"/>
<path fill-rule="evenodd" clip-rule="evenodd" d="M9.87893 31.1509C10.0868 31.1509 10.2995 31.098 10.4926 30.9861L55.096 5.23423L52.3044 11.3709C52.0227 11.9895 52.2958 12.7188 52.9143 12.9991C53.0791 13.0754 53.2525 13.1098 53.4235 13.1098C53.8908 13.1098 54.3372 12.8417 54.5438 12.3892L58.9244 2.75988C58.9379 2.72914 58.9354 2.69593 58.9465 2.66396C58.9699 2.59878 58.9883 2.53606 59.0006 2.4672C59.0068 2.43277 59.0264 2.40448 59.0289 2.36882C59.0301 2.35405 59.024 2.34176 59.0252 2.327C59.0277 2.28027 59.0228 2.23723 59.0203 2.19049C59.0166 2.12285 59.0055 2.0589 58.9908 1.99127C58.9809 1.94454 58.9785 1.89658 58.9625 1.85108C58.9477 1.80681 58.9219 1.76991 58.9022 1.72687C58.8862 1.69859 58.8862 1.66537 58.869 1.63586C58.8518 1.60635 58.8223 1.58913 58.8026 1.56084C58.7768 1.52272 58.7571 1.48213 58.7264 1.4477C58.6944 1.41081 58.6538 1.38498 58.6169 1.35178C58.5665 1.30628 58.5161 1.26447 58.4595 1.22757C58.4214 1.20297 58.387 1.17592 58.3451 1.15501C58.3316 1.14886 58.3242 1.13656 58.3107 1.13041C58.28 1.11688 58.2468 1.11934 58.216 1.10827C58.1484 1.08367 58.082 1.06646 58.0119 1.05416C57.9799 1.04801 57.9541 1.02956 57.9209 1.0271L47.3914 0.00637113C46.7088 -0.0624999 46.1136 0.436797 46.0484 1.11073C45.982 1.78712 46.4776 2.38849 47.1528 2.45367L53.8626 3.10423L9.26283 28.8561C8.67376 29.1956 8.4733 29.9482 8.81272 30.536C9.04023 30.9308 9.45344 31.1509 9.87896 31.1509H9.87893Z" fill="white"/>
</svg>
