<svg width="65" height="65" viewBox="0 0 65 65" fill="none" xmlns="http://www.w3.org/2000/svg">
<path fill-rule="evenodd" clip-rule="evenodd" d="M16.7139 20.8993L11.7393 16.4772C10.9439 15.7705 10.4879 14.7549 10.4879 13.6903V13.5681C10.4879 12.6505 10.8451 11.7882 11.4942 11.1391C12.0568 10.5765 12.8055 10.2667 13.6009 10.2667C14.3963 10.2667 15.145 10.5765 15.7076 11.1391L16.7139 12.1454L17.7202 11.1391C18.8456 10.0146 20.8083 10.0146 21.9337 11.1391C22.5828 11.7882 22.94 12.6505 22.94 13.5681V13.6903C22.94 14.7541 22.4839 15.7705 21.6885 16.4772L16.7139 20.8993ZM24.4965 13.6903V13.5681C24.4965 12.2349 23.9774 10.9819 23.0342 10.0387C22.1781 9.18183 21.0387 8.71021 19.827 8.71021C18.6596 8.71021 17.5591 9.14837 16.7139 9.94686C15.8688 9.14837 14.7683 8.71021 13.6009 8.71021C12.3892 8.71021 11.2498 9.18183 10.3937 10.0387C9.45049 10.9819 8.9314 12.2349 8.9314 13.5681V13.6903C8.9314 15.1985 9.57813 16.6383 10.705 17.6399L16.714 22.9819L22.7221 17.6407C23.8498 16.6391 24.4965 15.1993 24.4965 13.6903L24.4965 13.6903Z" fill="white"/>
<path fill-rule="evenodd" clip-rule="evenodd" d="M62.6774 34.4727C62.6774 35.0493 62.2084 35.5173 61.6328 35.5173H49.6531L44.5428 41.6482C44.3359 41.8948 43.8742 41.7287 43.8742 41.4069V35.5173H30.2941C29.7185 35.5173 29.2495 35.0493 29.2495 34.4727V29.2496H30.2941C32.0219 29.2496 33.428 27.8435 33.428 26.1157V10.4464H61.6328C62.2084 10.4464 62.6774 10.9144 62.6774 11.491L62.6774 34.4727ZM37.6065 55.3652C37.6065 55.9418 37.1374 56.4098 36.5618 56.4098H22.9817V62.2994C22.9817 62.6222 22.52 62.7893 22.3132 62.5407L17.2029 56.4098H5.22312C4.64753 56.4098 4.1785 55.9418 4.1785 55.3652V34.4727C4.1785 33.8961 4.64754 33.4281 5.22312 33.4281H15.5283L16.5301 34.6294C17.0002 35.1935 17.6907 35.5173 18.4251 35.5173C19.6556 35.5173 20.67 34.6085 20.8538 33.4281H27.1602V34.4727C27.1602 36.2005 28.5663 37.6066 30.2941 37.6066H37.6065L37.6065 55.3652ZM27.1602 31.3388H20.8925V29.2496H27.1602V31.3388ZM3.13387 27.1603C2.55828 27.1603 2.08925 26.6924 2.08925 26.1157V3.13399C2.08925 2.55736 2.55829 2.08937 3.13387 2.08937H30.2941C30.8697 2.08937 31.3387 2.55736 31.3387 3.13399V26.1157C31.3387 26.6924 30.8697 27.1603 30.2941 27.1603H18.8032V33.0499C18.8032 33.3727 18.3415 33.5399 18.1347 33.2912L13.0244 27.1603H3.13387ZM61.6328 8.35711H33.428V3.13399C33.428 1.40618 32.0219 0.00012207 30.2941 0.00012207H3.13387C1.40606 0.00012207 0 1.40618 0 3.13399V26.1157C0 27.8435 1.40606 29.2496 3.13387 29.2496H12.0466L13.788 31.3388H5.22312C3.49531 31.3388 2.08925 32.7449 2.08925 34.4727V55.3652C2.08925 57.093 3.49531 58.4991 5.22312 58.4991H16.2251L20.7086 63.8789C21.1787 64.443 21.8692 64.7668 22.6036 64.7668C23.9637 64.7668 25.071 63.6595 25.071 62.2994V58.4991H36.5618C38.2896 58.4991 39.6957 57.093 39.6957 55.3652V37.6066H41.785V41.4069C41.785 42.767 42.8923 43.8743 44.2524 43.8743C44.9867 43.8743 45.6772 43.5505 46.1473 42.9864L50.6308 37.6066H61.6328C63.3606 37.6066 64.7667 36.2005 64.7667 34.4727V11.491C64.7667 9.76317 63.3606 8.35711 61.6328 8.35711Z" fill="#00B54E"/>
<path fill-rule="evenodd" clip-rule="evenodd" d="M28.4874 44.4602C28.4874 45.298 27.8061 45.9792 26.9684 45.9792C26.1307 45.9792 25.4494 45.298 25.4494 44.4602C25.4494 43.6225 26.1307 42.9412 26.9684 42.9412C27.8061 42.9412 28.4874 43.6225 28.4874 44.4602ZM19.3735 42.9412C19.3735 42.1035 20.0547 41.4223 20.8925 41.4223C21.7302 41.4223 22.4115 42.1035 22.4115 42.9412C22.4115 43.779 21.7302 44.4602 20.8925 44.4602C20.0547 44.4602 19.3735 43.779 19.3735 42.9412ZM13.2975 44.4602C13.2975 43.6225 13.9788 42.9412 14.8165 42.9412C15.6542 42.9412 16.3355 43.6225 16.3355 44.4602C16.3355 45.298 15.6542 45.9792 14.8165 45.9792C13.9788 45.9792 13.2975 45.298 13.2975 44.4602ZM23.9304 44.4602C23.9304 44.9106 24.0353 45.3344 24.2115 45.7187C23.8841 45.4286 23.5196 45.181 23.1254 44.9843C23.6206 44.4435 23.9304 43.7304 23.9304 42.9412C23.9304 41.2658 22.5679 39.9033 20.8925 39.9033C19.217 39.9033 17.8545 41.2658 17.8545 42.9412C17.8545 43.7304 18.1644 44.4435 18.6595 44.9843C18.2654 45.181 17.9008 45.4286 17.5735 45.7187C17.7497 45.3344 17.8545 44.9106 17.8545 44.4602C17.8545 42.7848 16.4919 41.4222 14.8165 41.4222C13.141 41.4222 11.7785 42.7848 11.7785 44.4602C11.7785 45.2698 12.1013 46.0012 12.6193 46.5466C11.2142 47.3235 10.2595 48.8197 10.2595 50.5362V52.0552H11.7785V50.5362C11.7785 48.8607 13.141 47.4982 14.8165 47.4982C15.295 47.4982 15.7537 47.6121 16.1714 47.821C16.0514 48.1681 15.9633 48.5311 15.9208 48.9101L15.5806 51.9709L17.0897 52.1387L17.4299 49.078C17.6266 47.3114 19.1152 45.9792 20.8925 45.9792C22.6697 45.9792 24.1583 47.3114 24.355 49.078L24.6952 52.1387L26.2044 51.9709L25.8641 48.9101C25.8223 48.5311 25.7335 48.1681 25.6135 47.821C26.0312 47.6121 26.4899 47.4982 26.9684 47.4982C28.6439 47.4982 30.0064 48.8607 30.0064 50.5362V52.0552H31.5254V50.5362C31.5254 48.8197 30.5707 47.3235 29.1656 46.5466C29.6836 46.0012 30.0064 45.2698 30.0064 44.4602C30.0064 42.7848 28.6439 41.4222 26.9684 41.4222C25.293 41.4222 23.9304 42.7848 23.9304 44.4602V44.4602Z" fill="white"/>
<path fill-rule="evenodd" clip-rule="evenodd" d="M53.4303 27.2633C53.4303 28.0504 52.7902 28.6905 52.0032 28.6905H48.867C47.4505 28.6905 46.0769 28.3044 44.8674 27.5787V21.8501L45.5067 21.2107C46.4437 20.2738 47.1094 19.0985 47.4305 17.8134C47.5097 17.4958 47.7945 17.2732 48.1227 17.2732C48.5245 17.2732 48.9041 17.4487 49.1638 17.7563C49.4236 18.0631 49.5349 18.4663 49.4685 18.863L49.0204 21.5547H52.0032C52.7902 21.5547 53.4303 22.1947 53.4303 22.9818V27.2633ZM40.5859 28.6905V21.5547H43.4402L43.4409 28.6905H40.5859ZM52.0032 20.1275H50.7044L50.8764 19.0971C51.0113 18.2857 50.7844 17.4608 50.2527 16.8336C49.7211 16.2057 48.9448 15.846 48.1227 15.846C47.1387 15.846 46.2845 16.5132 46.0455 17.4673C45.7872 18.502 45.252 19.4467 44.4977 20.2017L44.2872 20.4122C44.0496 20.236 43.7584 20.1275 43.4402 20.1275H40.5859C39.7988 20.1275 39.1587 20.7676 39.1587 21.5547V28.6905C39.1587 29.4775 39.7988 30.1176 40.5859 30.1176H43.4402C44.0631 30.1176 44.5876 29.7145 44.7824 29.1571C46.0483 29.7851 47.4391 30.1176 48.867 30.1176H52.0032C53.5773 30.1176 54.8575 28.8375 54.8575 27.2633V22.9818C54.8575 21.4077 53.5773 20.1275 52.0032 20.1275L52.0032 20.1275Z" fill="white"/>
</svg>
